<svg width="115" height="38" viewBox="0 0 115 38" fill="none" xmlns="http://www.w3.org/2000/svg">
<path fill-rule="evenodd" clip-rule="evenodd" d="M17.2336 24.524C16.5531 25.7372 16.9709 27.2968 18.1666 28.0075C19.3623 28.7181 20.8833 28.3107 21.5637 27.0976L30.9088 10.4352C32.8563 13.282 34 16.7535 34 20.5C34 30.165 26.3888 38 17 38C7.61116 38 0 30.165 0 20.5C0 10.835 7.61116 3 17 3C20.8719 3 24.4415 4.3325 27.2996 6.57632L17.2336 24.524Z" fill="#5B7493"/>
<path d="M47.6 26.748C46.544 26.748 45.452 26.652 44.324 26.46C43.22 26.268 42.212 25.944 41.3 25.488C40.82 25.248 40.472 24.948 40.256 24.588C40.064 24.204 39.98 23.82 40.004 23.436C40.028 23.052 40.148 22.704 40.364 22.392C40.604 22.08 40.904 21.876 41.264 21.78C41.648 21.66 42.068 21.696 42.524 21.888C43.508 22.296 44.408 22.584 45.224 22.752C46.04 22.92 46.844 23.004 47.636 23.004C48.668 23.004 49.412 22.848 49.868 22.536C50.348 22.2 50.588 21.768 50.588 21.24C50.588 20.76 50.432 20.4 50.12 20.16C49.808 19.92 49.352 19.752 48.752 19.656L44.972 18.972C43.484 18.708 42.332 18.168 41.516 17.352C40.724 16.512 40.328 15.444 40.328 14.148C40.328 12.948 40.664 11.916 41.336 11.052C42.008 10.164 42.932 9.492 44.108 9.036C45.308 8.556 46.664 8.316 48.176 8.316C49.256 8.316 50.252 8.412 51.164 8.604C52.076 8.796 52.952 9.108 53.792 9.54C54.224 9.756 54.524 10.044 54.692 10.404C54.884 10.764 54.944 11.136 54.872 11.52C54.824 11.904 54.68 12.252 54.44 12.564C54.2 12.876 53.888 13.08 53.504 13.176C53.144 13.272 52.724 13.224 52.244 13.032C51.476 12.672 50.768 12.42 50.12 12.276C49.472 12.108 48.848 12.024 48.248 12.024C47.168 12.024 46.388 12.204 45.908 12.564C45.428 12.9 45.188 13.332 45.188 13.86C45.188 14.268 45.32 14.616 45.584 14.904C45.872 15.168 46.304 15.348 46.88 15.444L50.66 16.128C52.22 16.392 53.408 16.92 54.224 17.712C55.04 18.48 55.448 19.536 55.448 20.88C55.448 22.704 54.728 24.144 53.288 25.2C51.872 26.232 49.976 26.748 47.6 26.748Z" fill="#2C2A2C"/>
<path d="M61.2868 26.676C60.3988 26.676 59.7148 26.436 59.2348 25.956C58.7788 25.476 58.5508 24.792 58.5508 23.904V3.42C58.5508 2.508 58.7788 1.824 59.2348 1.368C59.7148 0.888001 60.3988 0.648 61.2868 0.648C62.1508 0.648 62.8108 0.888001 63.2668 1.368C63.7467 1.824 63.9867 2.508 63.9867 3.42V11.988H63.4827C64.0347 10.812 64.8507 9.912 65.9307 9.288C67.0347 8.64 68.2828 8.316 69.6748 8.316C71.0908 8.316 72.2548 8.592 73.1668 9.144C74.0788 9.672 74.7627 10.488 75.2188 11.592C75.6748 12.672 75.9028 14.052 75.9028 15.732V23.904C75.9028 24.792 75.6628 25.476 75.1828 25.956C74.7267 26.436 74.0548 26.676 73.1668 26.676C72.3028 26.676 71.6308 26.436 71.1508 25.956C70.6948 25.476 70.4668 24.792 70.4668 23.904V15.984C70.4668 14.76 70.2388 13.884 69.7828 13.356C69.3508 12.804 68.6788 12.528 67.7668 12.528C66.6147 12.528 65.6908 12.888 64.9948 13.608C64.3228 14.328 63.9867 15.288 63.9867 16.488V23.904C63.9867 25.752 63.0868 26.676 61.2868 26.676Z" fill="#2C2A2C"/>
<path d="M82.6969 26.64C81.8089 26.64 81.1249 26.388 80.6449 25.884C80.1889 25.356 79.9609 24.624 79.9609 23.688V11.376C79.9609 10.416 80.1889 9.684 80.6449 9.18C81.1249 8.652 81.8089 8.388 82.6969 8.388C83.5609 8.388 84.2209 8.652 84.6769 9.18C85.1569 9.684 85.3969 10.416 85.3969 11.376V23.688C85.3969 24.624 85.1689 25.356 84.7129 25.884C84.2569 26.388 83.5849 26.64 82.6969 26.64ZM82.6969 5.436C81.6889 5.436 80.9089 5.208 80.3569 4.752C79.8289 4.272 79.5649 3.6 79.5649 2.736C79.5649 1.848 79.8289 1.176 80.3569 0.720001C80.9089 0.24 81.6889 0 82.6969 0C83.7049 0 84.4729 0.24 85.0009 0.720001C85.5289 1.176 85.7929 1.848 85.7929 2.736C85.7929 3.6 85.5289 4.272 85.0009 4.752C84.4729 5.208 83.7049 5.436 82.6969 5.436Z" fill="#2C2A2C"/>
<path d="M93.6977 26.676C92.8097 26.676 92.1257 26.436 91.6457 25.956C91.1897 25.476 90.9617 24.792 90.9617 23.904V12.744H89.6657C88.9937 12.744 88.4657 12.564 88.0817 12.204C87.7217 11.844 87.5417 11.352 87.5417 10.728C87.5417 10.056 87.7217 9.552 88.0817 9.216C88.4657 8.856 88.9937 8.676 89.6657 8.676H92.5457L90.9617 10.116V9C90.9617 6.432 91.5977 4.512 92.8697 3.24C94.1657 1.968 96.0617 1.2 98.5577 0.936001L99.7097 0.828C100.334 0.780001 100.826 0.876001 101.186 1.116C101.57 1.356 101.822 1.668 101.942 2.052C102.062 2.436 102.086 2.832 102.014 3.24C101.942 3.624 101.774 3.972 101.51 4.284C101.27 4.572 100.934 4.728 100.502 4.752L99.9977 4.788C98.7017 4.884 97.7777 5.196 97.2257 5.724C96.6737 6.228 96.3977 7.008 96.3977 8.064V9.288L95.7137 8.676H98.9537C99.6497 8.676 100.178 8.856 100.538 9.216C100.898 9.552 101.078 10.056 101.078 10.728C101.078 11.352 100.898 11.844 100.538 12.204C100.178 12.564 99.6497 12.744 98.9537 12.744H96.3977V23.904C96.3977 25.752 95.4977 26.676 93.6977 26.676Z" fill="#2C2A2C"/>
<path d="M110.961 26.748C109.305 26.748 107.913 26.472 106.785 25.92C105.681 25.368 104.853 24.564 104.301 23.508C103.773 22.452 103.509 21.12 103.509 19.512V12.744H101.997C101.325 12.744 100.797 12.564 100.413 12.204C100.053 11.844 99.8731 11.352 99.8731 10.728C99.8731 10.056 100.053 9.552 100.413 9.216C100.797 8.856 101.325 8.676 101.997 8.676H103.509V5.94C103.509 5.028 103.749 4.344 104.229 3.888C104.709 3.408 105.381 3.168 106.245 3.168C107.133 3.168 107.805 3.408 108.261 3.888C108.717 4.344 108.945 5.028 108.945 5.94V8.676H112.365C113.037 8.676 113.553 8.856 113.913 9.216C114.273 9.552 114.453 10.056 114.453 10.728C114.453 11.352 114.273 11.844 113.913 12.204C113.553 12.564 113.037 12.744 112.365 12.744H108.945V19.296C108.945 20.304 109.173 21.06 109.629 21.564C110.109 22.068 110.865 22.32 111.897 22.32C112.257 22.32 112.593 22.284 112.905 22.212C113.217 22.14 113.505 22.092 113.769 22.068C114.105 22.044 114.381 22.152 114.597 22.392C114.813 22.608 114.921 23.1 114.921 23.868C114.921 24.444 114.825 24.948 114.633 25.38C114.441 25.812 114.105 26.124 113.625 26.316C113.313 26.436 112.881 26.532 112.329 26.604C111.801 26.7 111.345 26.748 110.961 26.748Z" fill="#2C2A2C"/>
<path d="M41.6939 36.7643C41.4206 36.7643 41.1735 36.7006 40.9524 36.5732C40.7354 36.4416 40.5626 36.2484 40.434 35.9936C40.3094 35.7389 40.2472 35.4204 40.2472 35.0382C40.2472 34.6561 40.3115 34.3376 40.44 34.0828C40.5727 33.828 40.7475 33.6369 40.9645 33.5096C41.1855 33.3822 41.4287 33.3185 41.6939 33.3185C42.0073 33.3185 42.2846 33.3907 42.5258 33.535C42.7669 33.6794 42.9578 33.8811 43.0984 34.1401C43.2391 34.3949 43.3094 34.6943 43.3094 35.0382C43.3094 35.3822 43.2391 35.6837 43.0984 35.9427C42.9578 36.2017 42.7669 36.4034 42.5258 36.5478C42.2846 36.6921 42.0073 36.7643 41.6939 36.7643ZM40 36.7261V32H40.5787V34.2484L40.5184 35.0318L40.5546 35.8153V36.7261H40ZM41.6457 36.2293C41.8506 36.2293 42.0335 36.1805 42.1942 36.0828C42.359 35.9851 42.4876 35.8471 42.58 35.6688C42.6765 35.4862 42.7247 35.276 42.7247 35.0382C42.7247 34.7962 42.6765 34.5881 42.58 34.414C42.4876 34.2357 42.359 34.0977 42.1942 34C42.0335 33.9023 41.8506 33.8535 41.6457 33.8535C41.4447 33.8535 41.2619 33.9023 41.0971 34C40.9364 34.0977 40.8078 34.2357 40.7113 34.414C40.6189 34.5881 40.5727 34.7962 40.5727 35.0382C40.5727 35.276 40.6189 35.4862 40.7113 35.6688C40.8078 35.8471 40.9364 35.9851 41.0971 36.0828C41.2619 36.1805 41.4447 36.2293 41.6457 36.2293Z" fill="#1E1E1E"/>
<path d="M44.1593 38C44.0066 38 43.8579 37.9724 43.7132 37.9172C43.5686 37.8662 43.444 37.7898 43.3395 37.6879L43.5867 37.2293C43.667 37.31 43.7554 37.3715 43.8519 37.414C43.9483 37.4565 44.0508 37.4777 44.1593 37.4777C44.3 37.4777 44.4165 37.4395 44.509 37.3631C44.6014 37.2866 44.6878 37.1507 44.7682 36.9554L44.9671 36.4904L45.0274 36.414L46.2812 33.3503H46.8478L45.2986 37.0637C45.2062 37.3015 45.1017 37.4883 44.9852 37.6242C44.8726 37.7601 44.7481 37.8556 44.6114 37.9108C44.4748 37.9703 44.3241 38 44.1593 38ZM44.9189 36.8344L43.4601 33.3503H44.0629L45.3047 36.3567L44.9189 36.8344Z" fill="#1E1E1E"/>
<path d="M52.1173 32.2675H52.7201V36.7261H52.1173V32.2675ZM49.694 36.7261H49.0912V32.2675H49.694V36.7261ZM52.1715 34.7389H49.6337V34.1847H52.1715V34.7389Z" fill="#1E1E1E"/>
<path d="M55.882 36.7261V36.0127L55.8518 35.879V34.6624C55.8518 34.4034 55.7795 34.2038 55.6348 34.0637C55.4941 33.9193 55.2812 33.8471 54.9958 33.8471C54.8069 33.8471 54.6221 33.8811 54.4412 33.949C54.2604 34.0127 54.1077 34.0998 53.9831 34.2102L53.742 33.7516C53.9068 33.6115 54.1037 33.5053 54.3327 33.4331C54.5658 33.3567 54.809 33.3185 55.0621 33.3185C55.5002 33.3185 55.8377 33.431 56.0749 33.6561C56.312 33.8811 56.4305 34.2251 56.4305 34.6879V36.7261H55.882ZM54.8331 36.7643C54.596 36.7643 54.387 36.7219 54.2062 36.6369C54.0293 36.552 53.8927 36.4352 53.7962 36.2866C53.6998 36.1338 53.6516 35.9618 53.6516 35.7707C53.6516 35.5881 53.6918 35.4225 53.7721 35.2739C53.8565 35.1253 53.9911 35.0064 54.176 34.9172C54.3649 34.828 54.6181 34.7834 54.9355 34.7834H55.9483V35.2229H54.9597C54.6703 35.2229 54.4754 35.2739 54.3749 35.3758C54.2745 35.4777 54.2242 35.6008 54.2242 35.7452C54.2242 35.9108 54.2865 36.0446 54.4111 36.1465C54.5357 36.2442 54.7085 36.293 54.9295 36.293C55.1465 36.293 55.3354 36.242 55.4962 36.1401C55.6609 36.0382 55.7795 35.8896 55.8518 35.6943L55.9663 36.1146C55.89 36.3142 55.7554 36.4735 55.5625 36.5924C55.3696 36.707 55.1264 36.7643 54.8331 36.7643Z" fill="#1E1E1E"/>
<path d="M57.5014 36.7261V33.3503H58.056V34.2675L58.0018 34.0382C58.0902 33.8047 58.2389 33.6263 58.4478 33.5032C58.6568 33.38 58.914 33.3185 59.2194 33.3185V33.9108C59.1953 33.9066 59.1712 33.9045 59.1471 33.9045C59.127 33.9045 59.1069 33.9045 59.0868 33.9045C58.7774 33.9045 58.5322 34.0021 58.3514 34.1975C58.1706 34.3928 58.0801 34.6752 58.0801 35.0446V36.7261H57.5014Z" fill="#1E1E1E"/>
<path d="M63.9293 33.3185C64.1865 33.3185 64.4136 33.3715 64.6105 33.4777C64.8074 33.5839 64.9601 33.7452 65.0686 33.9618C65.1811 34.1783 65.2374 34.4522 65.2374 34.7834V36.7261H64.6587V34.8535C64.6587 34.5265 64.5864 34.2803 64.4417 34.1146C64.297 33.949 64.0941 33.8662 63.8328 33.8662C63.6399 33.8662 63.4712 33.9087 63.3265 33.9936C63.1818 34.0786 63.0693 34.2038 62.9889 34.3694C62.9126 34.535 62.8744 34.741 62.8744 34.9873V36.7261H62.2957V34.8535C62.2957 34.5265 62.2233 34.2803 62.0787 34.1146C61.938 33.949 61.7351 33.8662 61.4698 33.8662C61.281 33.8662 61.1142 33.9087 60.9695 33.9936C60.8248 34.0786 60.7123 34.2038 60.6319 34.3694C60.5516 34.535 60.5114 34.741 60.5114 34.9873V36.7261H59.9327V33.3503H60.4873V34.2484L60.3968 34.0191C60.4973 33.7983 60.652 33.6263 60.861 33.5032C61.07 33.38 61.3131 33.3185 61.5904 33.3185C61.8958 33.3185 62.159 33.3992 62.3801 33.5605C62.6011 33.7176 62.7458 33.9575 62.8141 34.2803L62.579 34.1783C62.6755 33.9193 62.8442 33.7113 63.0854 33.5541C63.3265 33.397 63.6078 33.3185 63.9293 33.3185Z" fill="#1E1E1E"/>
<path d="M67.6706 36.7643C67.3491 36.7643 67.0637 36.69 66.8146 36.5414C66.5654 36.3928 66.3685 36.189 66.2238 35.9299C66.0792 35.6667 66.0068 35.3694 66.0068 35.0382C66.0068 34.7028 66.0792 34.4055 66.2238 34.1465C66.3685 33.8875 66.5654 33.6858 66.8146 33.5414C67.0637 33.3928 67.3491 33.3185 67.6706 33.3185C67.988 33.3185 68.2714 33.3928 68.5205 33.5414C68.7737 33.6858 68.9706 33.8875 69.1113 34.1465C69.2559 34.4013 69.3283 34.6985 69.3283 35.0382C69.3283 35.3737 69.2559 35.6709 69.1113 35.9299C68.9706 36.189 68.7737 36.3928 68.5205 36.5414C68.2714 36.69 67.988 36.7643 67.6706 36.7643ZM67.6706 36.2293C67.8755 36.2293 68.0584 36.1805 68.2191 36.0828C68.3839 35.9851 68.5125 35.8471 68.6049 35.6688C68.6973 35.4862 68.7436 35.276 68.7436 35.0382C68.7436 34.7962 68.6973 34.5881 68.6049 34.414C68.5125 34.2357 68.3839 34.0977 68.2191 34C68.0584 33.9023 67.8755 33.8535 67.6706 33.8535C67.4656 33.8535 67.2828 33.9023 67.122 34C66.9613 34.0977 66.8327 34.2357 66.7362 34.414C66.6398 34.5881 66.5915 34.7962 66.5915 35.0382C66.5915 35.276 66.6398 35.4862 66.7362 35.6688C66.8327 35.8471 66.9613 35.9851 67.122 36.0828C67.2828 36.1805 67.4656 36.2293 67.6706 36.2293Z" fill="#1E1E1E"/>
<path d="M71.8346 33.3185C72.0958 33.3185 72.3248 33.3715 72.5218 33.4777C72.7227 33.5839 72.8794 33.7452 72.9919 33.9618C73.1045 34.1783 73.1607 34.4522 73.1607 34.7834V36.7261H72.582V34.8535C72.582 34.5265 72.5057 34.2803 72.353 34.1146C72.2043 33.949 71.9933 33.8662 71.72 33.8662C71.5151 33.8662 71.3362 33.9087 71.1835 33.9936C71.0308 34.0786 70.9123 34.2038 70.8279 34.3694C70.7475 34.535 70.7073 34.741 70.7073 34.9873V36.7261H70.1286V33.3503H70.6832V34.2611L70.5928 34.0191C70.6973 33.7983 70.858 33.6263 71.075 33.5032C71.292 33.38 71.5452 33.3185 71.8346 33.3185Z" fill="#1E1E1E"/>
<path d="M74.3115 38C74.1588 38 74.0101 37.9724 73.8654 37.9172C73.7207 37.8662 73.5961 37.7898 73.4917 37.6879L73.7388 37.2293C73.8192 37.31 73.9076 37.3715 74.004 37.414C74.1005 37.4565 74.203 37.4777 74.3115 37.4777C74.4521 37.4777 74.5687 37.4395 74.6611 37.3631C74.7535 37.2866 74.8399 37.1507 74.9203 36.9554L75.1192 36.4904L75.1795 36.414L76.4334 33.3503H77L75.4508 37.0637C75.3584 37.3015 75.2539 37.4883 75.1373 37.6242C75.0248 37.7601 74.9002 37.8556 74.7636 37.9108C74.6269 37.9703 74.4762 38 74.3115 38ZM75.071 36.8344L73.6122 33.3503H74.215L75.4568 36.3567L75.071 36.8344Z" fill="#1E1E1E"/>
</svg>
